<svg width="37" height="24" viewBox="0 0 37 24" fill="none" xmlns="http://www.w3.org/2000/svg">
<g clip-path="url(#clip0_19445_47631)">
<path d="M11.9179 22.4759C17.6185 22.4759 22.2398 17.838 22.2398 12.1168C22.2398 6.39571 17.6185 1.75781 11.9179 1.75781C6.21722 1.75781 1.59595 6.39571 1.59595 12.1168C1.59595 17.838 6.21722 22.4759 11.9179 22.4759Z" fill="white"></path>
<path d="M33.6054 22.1559C33.6969 22.1513 33.8349 22.125 33.9254 22.1081C34.0586 22.0832 34.1884 22.0425 34.3121 21.987C34.647 21.8383 35.0586 21.4787 35.2177 20.9837C35.2692 20.8237 35.2971 20.657 35.3007 20.489C35.3015 20.453 35.3007 20.417 35.3007 20.3811C35.3007 19.7454 35.3007 19.1098 35.3007 18.4742C35.3007 18.4345 35.302 18.3602 35.3007 18.3205C35.3007 18.3205 35.2811 18.3321 35.269 18.3394C35.2454 18.3544 35.2208 18.3681 35.1956 18.3802C34.9825 18.489 34.7587 18.5752 34.5278 18.6375C34.3204 18.695 34.108 18.7327 33.8935 18.7499C33.7665 18.7609 33.639 18.765 33.5116 18.7624C32.9615 18.7477 32.439 18.625 31.9528 18.36C31.3617 18.0372 30.7526 17.44 30.4409 16.7131C30.3272 16.4486 30.2485 16.1703 30.2069 15.8853C30.1781 15.6835 30.1641 15.4798 30.1651 15.2759L30.1426 12.871L26.7581 12.9007C26.7581 14.7476 26.7581 16.9127 26.7581 18.7598H25.0242V8.24294C25.0235 8.07906 25.0322 7.91526 25.0502 7.75238C25.1207 7.13871 25.3392 6.58416 25.7196 6.09647C25.9427 5.80881 26.2081 5.55684 26.5067 5.34919C26.8849 5.08685 27.3147 4.90883 27.7671 4.82714C27.9479 4.79377 28.1303 4.77889 28.3131 4.76715C28.3409 4.7654 28.4425 4.76552 28.4702 4.76577L28.4773 6.4918C28.4194 6.4943 28.3258 6.50254 28.269 6.50654C28.2217 6.51229 28.1742 6.51804 28.1273 6.52654C27.8513 6.57625 27.5934 6.69871 27.3801 6.88137C27.1757 7.05322 27.0111 7.25632 26.9011 7.50166C26.8219 7.67678 26.7755 7.86501 26.7641 8.05697C26.7602 8.12471 26.7592 8.19282 26.7592 8.26069L26.7697 11.3919L31.9006 11.3928L31.9032 15.4048C31.9149 15.7819 32.0412 16.1152 32.2822 16.4046C32.4774 16.6388 32.7129 16.8185 33.0011 16.9241C33.1544 16.9815 33.3157 17.0142 33.4792 17.021C33.6227 17.0263 33.7656 17.0239 33.908 16.9992C34.1804 16.9526 34.4362 16.8364 34.6508 16.6617C34.7787 16.5593 34.8926 16.4404 34.9893 16.308C35.1913 16.0319 35.2908 15.7206 35.302 15.3801C35.304 15.3201 35.3028 15.2602 35.3028 15.2003C35.3028 13.9889 35.3028 12.6217 35.3028 11.4105L37.0012 11.403V20.0307C36.9985 20.1631 36.9995 21.093 36.9336 21.4253C36.8228 21.8484 36.6168 22.1905 36.349 22.5356C36.1361 22.8108 35.8844 23.0535 35.6018 23.256C35.1653 23.5684 34.6802 23.7577 34.1498 23.8329C34.0233 23.8508 33.896 23.8579 33.7691 23.8687C33.7258 23.8724 33.6507 23.8687 33.6072 23.8687L33.6054 22.1559Z" fill="#606060"></path>
<path d="M18.15 11.0069C17.9708 10.2798 17.5981 9.66787 17.046 9.16618C16.7175 8.86758 16.3383 8.63053 15.9264 8.46627C15.4781 8.2863 15.0127 8.19056 14.5289 8.19031C14.0788 8.19031 13.4828 8.19031 13.0322 8.19031V15.4381C13.5142 15.4381 14.1077 15.4381 14.5897 15.4381C14.7331 15.4369 14.8762 15.4258 15.0181 15.4047C15.5373 15.3318 16.0236 15.1634 16.4713 14.8888C17.1579 14.4676 17.6668 13.8901 17.9798 13.144C18.1197 12.8123 18.205 12.46 18.2323 12.1008C18.2397 12.0053 18.246 11.9094 18.2473 11.8133C18.2482 11.7416 18.2392 11.6699 18.2365 11.598C18.2277 11.3985 18.1988 11.2005 18.15 11.0069V11.0069Z" fill="#CE1010"></path>
<path d="M11.9577 0C5.35391 0 0.000976562 5.37255 0.000976562 11.9999C0.000976562 18.6273 5.35428 23.9999 11.958 23.9999C18.5618 23.9999 23.9151 18.6273 23.9151 11.9999C23.9151 5.37255 18.5613 0 11.9577 0ZM7.53951 18.7757H4.15898V8.01533C4.15898 6.27256 5.56624 4.85987 7.30327 4.85987H7.53989L7.53951 18.7757ZM21.5649 12.4882C21.5415 12.719 21.5072 12.9481 21.462 13.1757C21.3886 13.5398 21.2853 13.8972 21.1532 14.2443C20.8877 14.9442 20.5101 15.5959 20.0353 16.1736C19.0679 17.3527 17.75 18.1903 16.2743 18.5641C16.0506 18.6216 15.8241 18.6672 15.5956 18.7008C15.4578 18.7207 15.3196 18.7373 15.181 18.7518C15.058 18.7643 14.9347 18.7661 14.8118 18.7756C14.5849 18.7931 14.3579 18.7888 14.1308 18.7889C12.7005 18.7889 11.1077 18.7889 9.67742 18.7889L9.69187 7.70987C9.71753 7.41893 9.78463 7.13318 9.89112 6.86136C10.0637 6.41848 10.3332 6.02016 10.6798 5.69585C11.0263 5.37153 11.441 5.12948 11.8933 4.9876C12.0988 4.92324 12.3103 4.88039 12.5246 4.85974C12.6354 4.84887 12.7471 4.84349 12.8586 4.84312C13.3963 4.84149 13.9342 4.84062 14.4721 4.84312C14.6951 4.84429 14.9179 4.85466 15.1403 4.87424C16.6562 5.00605 18.0906 5.61992 19.2348 6.62651C19.8209 7.14063 20.3171 7.74964 20.7027 8.42828C21.0431 9.02583 21.2913 9.6717 21.4388 10.3439C21.5029 10.6325 21.5475 10.9252 21.5725 11.2198C21.5922 11.4586 21.6085 11.6982 21.5985 11.9382C21.591 12.1215 21.5831 12.3051 21.5649 12.4882V12.4882Z" fill="#CE1010"></path>
</g>
<defs>
<clipPath id="clip0_19445_47631">
<rect width="37" height="24" fill="white"></rect>
</clipPath>
</defs>
</svg>